<mxfile host="app.diagrams.net" modified="2024-01-18T07:36:10.501Z" agent="Mozilla/5.0 (Macintosh; Intel Mac OS X 10_15_7) AppleWebKit/605.1.15 (KHTML, like Gecko) Version/17.2.1 Safari/605.1.15" etag="fv6auDkaysaL2be0XAsO" version="22.1.18" type="github">
  <diagram name="Page-1" id="IWNDsFUn6cp-ahfYo-sc">
    <mxGraphModel dx="656" dy="802" grid="1" gridSize="10" guides="1" tooltips="1" connect="1" arrows="1" fold="1" page="1" pageScale="1" pageWidth="827" pageHeight="1169" background="#000000" math="0" shadow="0">
      <root>
        <mxCell id="0" />
        <mxCell id="1" parent="0" />
        <mxCell id="rJ-Bd9NQzSHB99DT8H3J-1" value="" style="rounded=0;whiteSpace=wrap;html=1;" parent="1" vertex="1">
          <mxGeometry x="30" y="70" width="120" height="60" as="geometry" />
        </mxCell>
        <mxCell id="rJ-Bd9NQzSHB99DT8H3J-2" value="Name" style="text;html=1;strokeColor=none;fillColor=none;align=center;verticalAlign=middle;whiteSpace=wrap;rounded=0;fontSize=16;" parent="1" vertex="1">
          <mxGeometry x="40" y="80" width="100" height="40" as="geometry" />
        </mxCell>
        <mxCell id="rJ-Bd9NQzSHB99DT8H3J-15" value="Genres" style="text;html=1;align=center;verticalAlign=middle;whiteSpace=wrap;rounded=0;fontSize=16;fontColor=#FFFFFF;" parent="1" vertex="1">
          <mxGeometry x="60" y="40" width="60" height="30" as="geometry" />
        </mxCell>
        <mxCell id="rJ-Bd9NQzSHB99DT8H3J-16" value="" style="rounded=0;whiteSpace=wrap;html=1;" parent="1" vertex="1">
          <mxGeometry x="210" y="70" width="200" height="60" as="geometry" />
        </mxCell>
        <mxCell id="rJ-Bd9NQzSHB99DT8H3J-27" value="" style="endArrow=none;html=1;rounded=0;entryX=0.5;entryY=0;entryDx=0;entryDy=0;exitX=0.5;exitY=1;exitDx=0;exitDy=0;" parent="1" source="rJ-Bd9NQzSHB99DT8H3J-16" target="rJ-Bd9NQzSHB99DT8H3J-16" edge="1">
          <mxGeometry width="50" height="50" relative="1" as="geometry">
            <mxPoint x="280" y="130" as="sourcePoint" />
            <mxPoint x="271.52" y="70.00000000000001" as="targetPoint" />
          </mxGeometry>
        </mxCell>
        <mxCell id="rJ-Bd9NQzSHB99DT8H3J-30" value="Name" style="text;html=1;strokeColor=none;fillColor=none;align=center;verticalAlign=middle;whiteSpace=wrap;rounded=0;fontSize=16;" parent="1" vertex="1">
          <mxGeometry x="230" y="80" width="80" height="40" as="geometry" />
        </mxCell>
        <mxCell id="rJ-Bd9NQzSHB99DT8H3J-31" value="Genre_id" style="text;html=1;strokeColor=none;fillColor=none;align=center;verticalAlign=middle;whiteSpace=wrap;rounded=0;fontSize=16;" parent="1" vertex="1">
          <mxGeometry x="320" y="80" width="80" height="40" as="geometry" />
        </mxCell>
        <mxCell id="rJ-Bd9NQzSHB99DT8H3J-32" value="Artists" style="text;html=1;strokeColor=none;fillColor=none;align=center;verticalAlign=middle;whiteSpace=wrap;rounded=0;fontSize=16;fontColor=#FFFFFF;" parent="1" vertex="1">
          <mxGeometry x="280" y="40" width="60" height="30" as="geometry" />
        </mxCell>
        <mxCell id="rJ-Bd9NQzSHB99DT8H3J-33" value="" style="rounded=0;whiteSpace=wrap;html=1;" parent="1" vertex="1">
          <mxGeometry x="470" y="70" width="200" height="60" as="geometry" />
        </mxCell>
        <mxCell id="rJ-Bd9NQzSHB99DT8H3J-34" value="" style="endArrow=none;html=1;rounded=0;entryX=0.39;entryY=0;entryDx=0;entryDy=0;entryPerimeter=0;" parent="1" target="rJ-Bd9NQzSHB99DT8H3J-33" edge="1">
          <mxGeometry width="50" height="50" relative="1" as="geometry">
            <mxPoint x="550" y="130" as="sourcePoint" />
            <mxPoint x="590" y="75" as="targetPoint" />
          </mxGeometry>
        </mxCell>
        <mxCell id="rJ-Bd9NQzSHB99DT8H3J-35" value="" style="endArrow=none;html=1;rounded=0;entryX=0.715;entryY=0.033;entryDx=0;entryDy=0;exitX=0.71;exitY=0.983;exitDx=0;exitDy=0;exitPerimeter=0;elbow=vertical;entryPerimeter=0;" parent="1" source="rJ-Bd9NQzSHB99DT8H3J-33" target="rJ-Bd9NQzSHB99DT8H3J-33" edge="1">
          <mxGeometry width="50" height="50" relative="1" as="geometry">
            <mxPoint x="600" y="125" as="sourcePoint" />
            <mxPoint x="650" y="75" as="targetPoint" />
          </mxGeometry>
        </mxCell>
        <mxCell id="rJ-Bd9NQzSHB99DT8H3J-39" value="Name" style="text;html=1;strokeColor=none;fillColor=none;align=center;verticalAlign=middle;whiteSpace=wrap;rounded=0;fontSize=16;" parent="1" vertex="1">
          <mxGeometry x="480" y="85" width="60" height="30" as="geometry" />
        </mxCell>
        <mxCell id="rJ-Bd9NQzSHB99DT8H3J-40" value="Year" style="text;html=1;strokeColor=none;fillColor=none;align=center;verticalAlign=middle;whiteSpace=wrap;rounded=0;fontSize=16;" parent="1" vertex="1">
          <mxGeometry x="550" y="85" width="60" height="30" as="geometry" />
        </mxCell>
        <mxCell id="rJ-Bd9NQzSHB99DT8H3J-41" value="Artist_id" style="text;html=1;strokeColor=none;fillColor=none;align=center;verticalAlign=middle;whiteSpace=wrap;rounded=0;fontSize=16;" parent="1" vertex="1">
          <mxGeometry x="610" y="85" width="60" height="30" as="geometry" />
        </mxCell>
        <mxCell id="rJ-Bd9NQzSHB99DT8H3J-42" value="Albums" style="text;html=1;strokeColor=none;fillColor=none;align=center;verticalAlign=middle;whiteSpace=wrap;rounded=0;fontSize=16;fontColor=#FFFFFF;" parent="1" vertex="1">
          <mxGeometry x="550" y="40" width="60" height="30" as="geometry" />
        </mxCell>
        <mxCell id="rJ-Bd9NQzSHB99DT8H3J-43" value="" style="rounded=0;whiteSpace=wrap;html=1;" parent="1" vertex="1">
          <mxGeometry x="760" y="70" width="260" height="60" as="geometry" />
        </mxCell>
        <mxCell id="rJ-Bd9NQzSHB99DT8H3J-47" value="" style="endArrow=none;html=1;rounded=0;entryX=0.346;entryY=0;entryDx=0;entryDy=0;entryPerimeter=0;exitX=0.346;exitY=1.05;exitDx=0;exitDy=0;exitPerimeter=0;" parent="1" source="rJ-Bd9NQzSHB99DT8H3J-43" target="rJ-Bd9NQzSHB99DT8H3J-43" edge="1">
          <mxGeometry width="50" height="50" relative="1" as="geometry">
            <mxPoint x="830" y="125" as="sourcePoint" />
            <mxPoint x="870" y="80" as="targetPoint" />
            <Array as="points">
              <mxPoint x="850" y="100" />
            </Array>
          </mxGeometry>
        </mxCell>
        <mxCell id="rJ-Bd9NQzSHB99DT8H3J-48" value="" style="endArrow=none;html=1;rounded=0;entryX=0.696;entryY=0.017;entryDx=0;entryDy=0;entryPerimeter=0;" parent="1" target="rJ-Bd9NQzSHB99DT8H3J-43" edge="1">
          <mxGeometry width="50" height="50" relative="1" as="geometry">
            <mxPoint x="940" y="140" as="sourcePoint" />
            <mxPoint x="710" y="100" as="targetPoint" />
            <Array as="points">
              <mxPoint x="940" y="110" />
            </Array>
          </mxGeometry>
        </mxCell>
        <mxCell id="rJ-Bd9NQzSHB99DT8H3J-49" value="Name" style="text;html=1;strokeColor=none;fillColor=none;align=center;verticalAlign=middle;whiteSpace=wrap;rounded=0;fontSize=16;" parent="1" vertex="1">
          <mxGeometry x="770" y="85" width="60" height="30" as="geometry" />
        </mxCell>
        <mxCell id="rJ-Bd9NQzSHB99DT8H3J-50" value="Length" style="text;html=1;strokeColor=none;fillColor=none;align=center;verticalAlign=middle;whiteSpace=wrap;rounded=0;fontSize=16;" parent="1" vertex="1">
          <mxGeometry x="860" y="85" width="60" height="30" as="geometry" />
        </mxCell>
        <mxCell id="rJ-Bd9NQzSHB99DT8H3J-52" value="Album_id" style="text;html=1;strokeColor=none;fillColor=none;align=center;verticalAlign=middle;whiteSpace=wrap;rounded=0;fontSize=16;" parent="1" vertex="1">
          <mxGeometry x="950" y="85" width="60" height="30" as="geometry" />
        </mxCell>
        <mxCell id="rJ-Bd9NQzSHB99DT8H3J-53" value="Tracks" style="text;html=1;strokeColor=none;fillColor=none;align=center;verticalAlign=middle;whiteSpace=wrap;rounded=0;fontSize=16;fontColor=#FFFFFF;" parent="1" vertex="1">
          <mxGeometry x="860" y="40" width="60" height="30" as="geometry" />
        </mxCell>
        <mxCell id="k2IXPatVONKHka_lEDo5-1" value="" style="rounded=0;whiteSpace=wrap;html=1;fillColor=#d5e8d4;strokeColor=#82b366;" vertex="1" parent="1">
          <mxGeometry x="30" y="130" width="120" height="30" as="geometry" />
        </mxCell>
        <mxCell id="k2IXPatVONKHka_lEDo5-2" value="Text" style="text;html=1;strokeColor=none;fillColor=none;align=center;verticalAlign=middle;whiteSpace=wrap;rounded=0;" vertex="1" parent="1">
          <mxGeometry x="280" y="320" width="60" height="30" as="geometry" />
        </mxCell>
        <mxCell id="k2IXPatVONKHka_lEDo5-3" value="Rock" style="text;html=1;strokeColor=none;fillColor=none;align=center;verticalAlign=middle;whiteSpace=wrap;rounded=0;fontSize=15;" vertex="1" parent="1">
          <mxGeometry x="60" y="130" width="60" height="30" as="geometry" />
        </mxCell>
        <mxCell id="k2IXPatVONKHka_lEDo5-4" value="" style="rounded=0;whiteSpace=wrap;html=1;fillColor=#d5e8d4;strokeColor=#82b366;" vertex="1" parent="1">
          <mxGeometry x="30" y="160" width="120" height="30" as="geometry" />
        </mxCell>
        <mxCell id="k2IXPatVONKHka_lEDo5-5" value="" style="rounded=0;whiteSpace=wrap;html=1;fillColor=#d5e8d4;strokeColor=#82b366;" vertex="1" parent="1">
          <mxGeometry x="30" y="190" width="120" height="30" as="geometry" />
        </mxCell>
        <mxCell id="k2IXPatVONKHka_lEDo5-6" value="Pop" style="text;html=1;strokeColor=none;fillColor=none;align=center;verticalAlign=middle;whiteSpace=wrap;rounded=0;fontSize=15;" vertex="1" parent="1">
          <mxGeometry x="60" y="160" width="60" height="30" as="geometry" />
        </mxCell>
        <mxCell id="k2IXPatVONKHka_lEDo5-7" value="Folk" style="text;html=1;strokeColor=none;fillColor=none;align=center;verticalAlign=middle;whiteSpace=wrap;rounded=0;fontSize=15;" vertex="1" parent="1">
          <mxGeometry x="60" y="190" width="60" height="30" as="geometry" />
        </mxCell>
        <mxCell id="k2IXPatVONKHka_lEDo5-8" value="ID" style="rounded=0;whiteSpace=wrap;html=1;" vertex="1" parent="1">
          <mxGeometry y="70" width="30" height="60" as="geometry" />
        </mxCell>
        <mxCell id="k2IXPatVONKHka_lEDo5-9" value="1" style="rounded=0;whiteSpace=wrap;html=1;fillColor=#d5e8d4;strokeColor=#82b366;" vertex="1" parent="1">
          <mxGeometry y="130" width="30" height="30" as="geometry" />
        </mxCell>
        <mxCell id="k2IXPatVONKHka_lEDo5-10" value="2" style="rounded=0;whiteSpace=wrap;html=1;fillColor=#d5e8d4;strokeColor=#82b366;" vertex="1" parent="1">
          <mxGeometry y="160" width="30" height="30" as="geometry" />
        </mxCell>
        <mxCell id="k2IXPatVONKHka_lEDo5-11" value="3" style="rounded=0;whiteSpace=wrap;html=1;fillColor=#d5e8d4;strokeColor=#82b366;" vertex="1" parent="1">
          <mxGeometry y="190" width="30" height="30" as="geometry" />
        </mxCell>
        <mxCell id="k2IXPatVONKHka_lEDo5-12" value="Text" style="text;html=1;strokeColor=none;fillColor=none;align=center;verticalAlign=middle;whiteSpace=wrap;rounded=0;" vertex="1" parent="1">
          <mxGeometry x="240" y="300" width="60" height="30" as="geometry" />
        </mxCell>
        <mxCell id="k2IXPatVONKHka_lEDo5-14" value="ID" style="rounded=0;whiteSpace=wrap;html=1;" vertex="1" parent="1">
          <mxGeometry x="180" y="70" width="30" height="60" as="geometry" />
        </mxCell>
        <mxCell id="k2IXPatVONKHka_lEDo5-15" value="1" style="rounded=0;whiteSpace=wrap;html=1;fillColor=#ffe6cc;strokeColor=#d79b00;" vertex="1" parent="1">
          <mxGeometry x="180" y="130" width="30" height="30" as="geometry" />
        </mxCell>
        <mxCell id="k2IXPatVONKHka_lEDo5-16" value="2" style="rounded=0;whiteSpace=wrap;html=1;fillColor=#ffe6cc;strokeColor=#d79b00;" vertex="1" parent="1">
          <mxGeometry x="180" y="160" width="30" height="30" as="geometry" />
        </mxCell>
        <mxCell id="k2IXPatVONKHka_lEDo5-17" value="3" style="rounded=0;whiteSpace=wrap;html=1;fillColor=#ffe6cc;strokeColor=#d79b00;" vertex="1" parent="1">
          <mxGeometry x="180" y="190" width="30" height="30" as="geometry" />
        </mxCell>
        <mxCell id="k2IXPatVONKHka_lEDo5-18" value="David Bowie" style="rounded=0;whiteSpace=wrap;html=1;fillColor=#ffe6cc;strokeColor=#d79b00;" vertex="1" parent="1">
          <mxGeometry x="210" y="130" width="100" height="30" as="geometry" />
        </mxCell>
        <mxCell id="k2IXPatVONKHka_lEDo5-19" value="Bob Dylan" style="rounded=0;whiteSpace=wrap;html=1;fillColor=#ffe6cc;strokeColor=#d79b00;" vertex="1" parent="1">
          <mxGeometry x="210" y="160" width="100" height="30" as="geometry" />
        </mxCell>
        <mxCell id="k2IXPatVONKHka_lEDo5-20" value="Lady Gaga" style="rounded=0;whiteSpace=wrap;html=1;fillColor=#ffe6cc;strokeColor=#d79b00;" vertex="1" parent="1">
          <mxGeometry x="210" y="190" width="100" height="30" as="geometry" />
        </mxCell>
        <mxCell id="k2IXPatVONKHka_lEDo5-21" value="1, 2" style="rounded=0;whiteSpace=wrap;html=1;fillColor=#ffe6cc;strokeColor=#d79b00;" vertex="1" parent="1">
          <mxGeometry x="310" y="130" width="100" height="30" as="geometry" />
        </mxCell>
        <mxCell id="k2IXPatVONKHka_lEDo5-22" value="1, 3" style="rounded=0;whiteSpace=wrap;html=1;fillColor=#ffe6cc;strokeColor=#d79b00;" vertex="1" parent="1">
          <mxGeometry x="310" y="160" width="100" height="30" as="geometry" />
        </mxCell>
        <mxCell id="k2IXPatVONKHka_lEDo5-23" value="2" style="rounded=0;whiteSpace=wrap;html=1;fillColor=#ffe6cc;strokeColor=#d79b00;" vertex="1" parent="1">
          <mxGeometry x="310" y="190" width="100" height="30" as="geometry" />
        </mxCell>
        <mxCell id="k2IXPatVONKHka_lEDo5-24" value="ID" style="rounded=0;whiteSpace=wrap;html=1;" vertex="1" parent="1">
          <mxGeometry x="440" y="70" width="30" height="60" as="geometry" />
        </mxCell>
        <mxCell id="k2IXPatVONKHka_lEDo5-25" value="1" style="rounded=0;whiteSpace=wrap;html=1;fillColor=#f8cecc;strokeColor=#b85450;" vertex="1" parent="1">
          <mxGeometry x="440" y="130" width="30" height="30" as="geometry" />
        </mxCell>
        <mxCell id="k2IXPatVONKHka_lEDo5-26" value="2" style="rounded=0;whiteSpace=wrap;html=1;fillColor=#f8cecc;strokeColor=#b85450;" vertex="1" parent="1">
          <mxGeometry x="440" y="160" width="30" height="30" as="geometry" />
        </mxCell>
        <mxCell id="k2IXPatVONKHka_lEDo5-27" value="3" style="rounded=0;whiteSpace=wrap;html=1;fillColor=#f8cecc;strokeColor=#b85450;" vertex="1" parent="1">
          <mxGeometry x="440" y="190" width="30" height="30" as="geometry" />
        </mxCell>
        <mxCell id="k2IXPatVONKHka_lEDo5-28" value="Heaven" style="rounded=0;whiteSpace=wrap;html=1;fillColor=#f8cecc;strokeColor=#b85450;" vertex="1" parent="1">
          <mxGeometry x="470" y="130" width="80" height="30" as="geometry" />
        </mxCell>
        <mxCell id="k2IXPatVONKHka_lEDo5-29" value="Desire" style="rounded=0;whiteSpace=wrap;html=1;fillColor=#f8cecc;strokeColor=#b85450;" vertex="1" parent="1">
          <mxGeometry x="470" y="160" width="100" height="30" as="geometry" />
        </mxCell>
        <mxCell id="k2IXPatVONKHka_lEDo5-30" value="Chromatica" style="rounded=0;whiteSpace=wrap;html=1;fillColor=#f8cecc;strokeColor=#b85450;" vertex="1" parent="1">
          <mxGeometry x="470" y="190" width="90" height="30" as="geometry" />
        </mxCell>
        <mxCell id="k2IXPatVONKHka_lEDo5-31" value="1971" style="rounded=0;whiteSpace=wrap;html=1;fillColor=#f8cecc;strokeColor=#b85450;" vertex="1" parent="1">
          <mxGeometry x="550" y="130" width="60" height="30" as="geometry" />
        </mxCell>
        <mxCell id="k2IXPatVONKHka_lEDo5-32" value="1976" style="rounded=0;whiteSpace=wrap;html=1;fillColor=#f8cecc;strokeColor=#b85450;" vertex="1" parent="1">
          <mxGeometry x="550" y="160" width="60" height="30" as="geometry" />
        </mxCell>
        <mxCell id="k2IXPatVONKHka_lEDo5-33" value="2020" style="rounded=0;whiteSpace=wrap;html=1;fillColor=#f8cecc;strokeColor=#b85450;" vertex="1" parent="1">
          <mxGeometry x="550" y="190" width="60" height="30" as="geometry" />
        </mxCell>
        <mxCell id="k2IXPatVONKHka_lEDo5-34" value="1, 2" style="rounded=0;whiteSpace=wrap;html=1;fillColor=#f8cecc;strokeColor=#b85450;" vertex="1" parent="1">
          <mxGeometry x="610" y="130" width="60" height="30" as="geometry" />
        </mxCell>
        <mxCell id="k2IXPatVONKHka_lEDo5-35" value="2" style="rounded=0;whiteSpace=wrap;html=1;fillColor=#f8cecc;strokeColor=#b85450;" vertex="1" parent="1">
          <mxGeometry x="610" y="160" width="60" height="30" as="geometry" />
        </mxCell>
        <mxCell id="k2IXPatVONKHka_lEDo5-36" value="3" style="rounded=0;whiteSpace=wrap;html=1;fillColor=#f8cecc;strokeColor=#b85450;" vertex="1" parent="1">
          <mxGeometry x="610" y="190" width="60" height="30" as="geometry" />
        </mxCell>
        <mxCell id="k2IXPatVONKHka_lEDo5-37" value="ID" style="rounded=0;whiteSpace=wrap;html=1;" vertex="1" parent="1">
          <mxGeometry x="730" y="70" width="30" height="60" as="geometry" />
        </mxCell>
        <mxCell id="k2IXPatVONKHka_lEDo5-38" value="1" style="rounded=0;whiteSpace=wrap;html=1;fillColor=#f8cecc;strokeColor=#b85450;" vertex="1" parent="1">
          <mxGeometry x="730" y="130" width="30" height="30" as="geometry" />
        </mxCell>
        <mxCell id="k2IXPatVONKHka_lEDo5-39" value="2" style="rounded=0;whiteSpace=wrap;html=1;fillColor=#f8cecc;strokeColor=#b85450;" vertex="1" parent="1">
          <mxGeometry x="730" y="160" width="30" height="30" as="geometry" />
        </mxCell>
        <mxCell id="k2IXPatVONKHka_lEDo5-40" value="3" style="rounded=0;whiteSpace=wrap;html=1;fillColor=#f8cecc;strokeColor=#b85450;" vertex="1" parent="1">
          <mxGeometry x="730" y="190" width="30" height="30" as="geometry" />
        </mxCell>
        <mxCell id="k2IXPatVONKHka_lEDo5-41" value="4" style="rounded=0;whiteSpace=wrap;html=1;fillColor=#f8cecc;strokeColor=#b85450;" vertex="1" parent="1">
          <mxGeometry x="730" y="220" width="30" height="30" as="geometry" />
        </mxCell>
        <mxCell id="k2IXPatVONKHka_lEDo5-42" value="5" style="rounded=0;whiteSpace=wrap;html=1;fillColor=#f8cecc;strokeColor=#b85450;" vertex="1" parent="1">
          <mxGeometry x="730" y="250" width="30" height="30" as="geometry" />
        </mxCell>
        <mxCell id="k2IXPatVONKHka_lEDo5-43" value="6" style="rounded=0;whiteSpace=wrap;html=1;fillColor=#f8cecc;strokeColor=#b85450;" vertex="1" parent="1">
          <mxGeometry x="730" y="280" width="30" height="30" as="geometry" />
        </mxCell>
        <mxCell id="k2IXPatVONKHka_lEDo5-44" value="A" style="rounded=0;whiteSpace=wrap;html=1;fillColor=#f8cecc;strokeColor=#b85450;" vertex="1" parent="1">
          <mxGeometry x="760" y="130" width="90" height="30" as="geometry" />
        </mxCell>
        <mxCell id="k2IXPatVONKHka_lEDo5-45" value="B" style="rounded=0;whiteSpace=wrap;html=1;fillColor=#f8cecc;strokeColor=#b85450;" vertex="1" parent="1">
          <mxGeometry x="760" y="160" width="90" height="30" as="geometry" />
        </mxCell>
        <mxCell id="k2IXPatVONKHka_lEDo5-46" value="C" style="rounded=0;whiteSpace=wrap;html=1;fillColor=#f8cecc;strokeColor=#b85450;" vertex="1" parent="1">
          <mxGeometry x="760" y="190" width="90" height="30" as="geometry" />
        </mxCell>
        <mxCell id="k2IXPatVONKHka_lEDo5-47" value="1:30" style="rounded=0;whiteSpace=wrap;html=1;fillColor=#f8cecc;strokeColor=#b85450;" vertex="1" parent="1">
          <mxGeometry x="850" y="130" width="90" height="30" as="geometry" />
        </mxCell>
        <mxCell id="k2IXPatVONKHka_lEDo5-48" value="2:20" style="rounded=0;whiteSpace=wrap;html=1;fillColor=#f8cecc;strokeColor=#b85450;" vertex="1" parent="1">
          <mxGeometry x="850" y="160" width="90" height="30" as="geometry" />
        </mxCell>
        <mxCell id="k2IXPatVONKHka_lEDo5-49" value="5:50" style="rounded=0;whiteSpace=wrap;html=1;fillColor=#f8cecc;strokeColor=#b85450;" vertex="1" parent="1">
          <mxGeometry x="850" y="190" width="90" height="30" as="geometry" />
        </mxCell>
        <mxCell id="k2IXPatVONKHka_lEDo5-50" value="1, 2" style="rounded=0;whiteSpace=wrap;html=1;fillColor=#f8cecc;strokeColor=#b85450;" vertex="1" parent="1">
          <mxGeometry x="940" y="130" width="80" height="30" as="geometry" />
        </mxCell>
        <mxCell id="k2IXPatVONKHka_lEDo5-51" value="2" style="rounded=0;whiteSpace=wrap;html=1;fillColor=#f8cecc;strokeColor=#b85450;" vertex="1" parent="1">
          <mxGeometry x="940" y="160" width="80" height="30" as="geometry" />
        </mxCell>
        <mxCell id="k2IXPatVONKHka_lEDo5-52" value="3" style="rounded=0;whiteSpace=wrap;html=1;fillColor=#f8cecc;strokeColor=#b85450;" vertex="1" parent="1">
          <mxGeometry x="940" y="190" width="80" height="30" as="geometry" />
        </mxCell>
        <mxCell id="k2IXPatVONKHka_lEDo5-53" value="D" style="rounded=0;whiteSpace=wrap;html=1;fillColor=#f8cecc;strokeColor=#b85450;" vertex="1" parent="1">
          <mxGeometry x="760" y="220" width="90" height="30" as="geometry" />
        </mxCell>
        <mxCell id="k2IXPatVONKHka_lEDo5-54" value="E" style="rounded=0;whiteSpace=wrap;html=1;fillColor=#f8cecc;strokeColor=#b85450;" vertex="1" parent="1">
          <mxGeometry x="760" y="250" width="90" height="30" as="geometry" />
        </mxCell>
        <mxCell id="k2IXPatVONKHka_lEDo5-55" value="F" style="rounded=0;whiteSpace=wrap;html=1;fillColor=#f8cecc;strokeColor=#b85450;" vertex="1" parent="1">
          <mxGeometry x="760" y="280" width="90" height="30" as="geometry" />
        </mxCell>
        <mxCell id="k2IXPatVONKHka_lEDo5-56" value="3:40" style="rounded=0;whiteSpace=wrap;html=1;fillColor=#f8cecc;strokeColor=#b85450;" vertex="1" parent="1">
          <mxGeometry x="850" y="220" width="90" height="30" as="geometry" />
        </mxCell>
        <mxCell id="k2IXPatVONKHka_lEDo5-57" value="5:00" style="rounded=0;whiteSpace=wrap;html=1;fillColor=#f8cecc;strokeColor=#b85450;" vertex="1" parent="1">
          <mxGeometry x="850" y="250" width="90" height="30" as="geometry" />
        </mxCell>
        <mxCell id="k2IXPatVONKHka_lEDo5-58" value="1" style="rounded=0;whiteSpace=wrap;html=1;fillColor=#f8cecc;strokeColor=#b85450;" vertex="1" parent="1">
          <mxGeometry x="940" y="220" width="80" height="30" as="geometry" />
        </mxCell>
        <mxCell id="k2IXPatVONKHka_lEDo5-59" value="2" style="rounded=0;whiteSpace=wrap;html=1;fillColor=#f8cecc;strokeColor=#b85450;" vertex="1" parent="1">
          <mxGeometry x="940" y="250" width="80" height="30" as="geometry" />
        </mxCell>
        <mxCell id="k2IXPatVONKHka_lEDo5-60" value="3" style="rounded=0;whiteSpace=wrap;html=1;fillColor=#f8cecc;strokeColor=#b85450;" vertex="1" parent="1">
          <mxGeometry x="940" y="280" width="80" height="30" as="geometry" />
        </mxCell>
        <mxCell id="k2IXPatVONKHka_lEDo5-61" value="4:00" style="rounded=0;whiteSpace=wrap;html=1;fillColor=#f8cecc;strokeColor=#b85450;" vertex="1" parent="1">
          <mxGeometry x="850" y="280" width="90" height="30" as="geometry" />
        </mxCell>
      </root>
    </mxGraphModel>
  </diagram>
</mxfile>
